<svg id="Layer_1" data-name="Layer 1" xmlns="http://www.w3.org/2000/svg" viewBox="0 0 272.98132 137.9828"><defs><style>.cls-1{fill:#004027;}.cls-2{fill:#84001d;}.cls-3{fill:#fff0c3;}</style></defs><title>jameson_no-whiskey-logo_green_rgb_web-colours</title><path class="cls-1" d="M283.65342,45.37263a0.72864,0.72864,0,0,0,.87994-0.671,0.64138,0.64138,0,0,0-.438-0.907l-0.31-.084-0.431,1.581Zm-2.181,1.195c0.459,0.072.497,0.062,0.597-.276l0.666-2.429c0.091-.339.059-0.371-0.372-0.542l0.088-.316,2.242,0.612a1.06653,1.06653,0,0,1,.94,1.311,1.19223,1.19223,0,0,1-1.146.845l0.423,1.377a0.61559,0.61559,0,0,0,.4.473l-0.085.32-0.92-.249a0.63585,0.63585,0,0,1-.385-0.548l-0.393-1.463-0.262-.071-0.25305.935c-0.097.341-.063,0.374,0.362,0.546l-0.089.317-1.898-.522Zm3.084-3.953a2.98318,2.98318,0,1,0,2.032,3.65,2.88554,2.88554,0,0,0-2.032-3.65m0.247-.88a3.89581,3.89581,0,1,1-4.791,2.725,3.88272,3.88272,0,0,1,4.791-2.725m-21.48,11.556a14.467,14.467,0,0,1,.302,2.685,8.40412,8.40412,0,0,1,.509-2.519l4.748-13.955c1.205-3.597,1.165-6.214-.44-8.265l0.063-.115,11.513,4.28-0.032.134c-2.397.7-4.234,2.685-5.44,6.309-0.675,2.17-11.207,33.154-11.207,33.154l-5.808-2.196-5.726-28.35a13.75187,13.75187,0,0,1-.304-2.681,8.55282,8.55282,0,0,1-.506,2.52c-0.492,1.619-5.248,15.85-5.248,15.85-1.062,3.774-.92206,6.374.595,8.366l-0.05.126-12.308-3.616,0.01794-.132c2.506-.702,4.634-2.603,5.798-6.218l7.794-24.472c1.197-4.004.886-7.657-1.291-9.755l0.046-.128,11.345,3.293Zm-39.503-29.554c-5.558-1.221-9.264,5.509-11.175,14.2-2.006,9.165-1.073,16.259,4.016,17.374,4.851,1.064,8.959-4.924,10.966-14.085,1.906-8.692,1.754-16.27-3.80695-17.489m13.58,19.651c-2.951,12.157-11.966,20.58-22.57,18.252-11.55695-2.536-15.111-13.457-12.11-25.853,2.962-12.249,11.336-19.964,22.132-18.153,12.796,2.147,15.427,13.883,12.548,25.754m-55.802,12.643c-5.423-.164-6.006-1.702-9.075-2.404a4.3856,4.3856,0,0,0-4.438,1.263l-0.133-.016,0.65-15.009,0.13-.017a19.598,19.598,0,0,0,7.906,8.982c3.318,1.851,6.678,1.082,8.394-1.098a6.05182,6.05182,0,0,0-.486-7.804c-2.349-2.397-6.063-4.011-9.185-6.405-6.3-4.844-5.892-11.388-3.922-15.026,2.752-5.076,8.522-7.143,13.673-6.645,3.134,0.306,4.546,1.109,6.734,1.81a7.15968,7.15968,0,0,0,4.54395.054l0.132,0.024-0.997,11.85-0.134.008c-1.127-3.132-4.86-7.038-8.786-7.77-3.442-.635-5.347.584-6.194,2.004-1.303,2.186-.725,4.617,1.648,6.26,3.438,2.375,7.61,4.15,10.357,6.737,3.992,3.766,5.265,10.44,1.713,16.342a14.87335,14.87335,0,0,1-12.531,6.86m-19.699-44.676-0.32,9.356-0.135.01c-1.491-3.482-5.265-4.188-8.646-4.156l-7.325.075-0.199,11.28,3.711,0.104c4.939,0.1,6.401-.31,8.205-3.437l0.132,0.021-0.47,13.403-0.132.013c-1.632-3.48-5.28-3.718-8.656-3.683l-2.779-.012-0.29,12.446,7.651,0.153c4.938,0.097,7.412-1.27,9.01-4.126l0.131,0.029-1.364,10.984c-9.037-.302-19.409-0.358-27.495.011l-0.023-.133c1.828-1.206,2.826-3.929,2.845-8.024l0.291-26.696c0.033-3.795-.231-6.222-2.852-7.537l0.018-.133c8.81-.328,20.013-0.343,28.692.052m-49.343,1.303,12.992-1,0.027,0.131c-3.39,1.608-3.028,4.521-2.684,9.045l1.73,25.771c0.418,3.773,1.352,6.688,3.021,7.418l-0.011.135s-3.028.181-7.209,0.516c-4.161.336-7.244,0.643-7.244,0.643l-0.029-.132c1.526-1.027,2.822-4.205,2.533-8.111,0,0-1.12195-16.764-1.238-18.165a12.87673,12.87673,0,0,1,.014-2.667,24.97285,24.97285,0,0,1-.60895,2.53c-0.409,1.358-8.341,27.938-8.341,27.938l-0.208.015s-11.79-21.839-12.849-23.593a11.3938,11.3938,0,0,1-1.184-2.732,20.80335,20.80335,0,0,1,.687,2.917c0.275,1.668,2.362,16.391,2.362,16.391,0.671,3.861,2.708,6.625,4.435,7.25l0.01,0.134-11.404,1.86-0.038-.124c1.438-1.114,1.634-4.173,1.116-7.935l-3.454-25.554c-0.537-3.887-2.518-6.983-5.393-7.933l-0.006-.135,12.947-2.212s10.807,19.614,12.706,22.597c1.151-3.73,7.321-24.998,7.321-24.998m-54.743,19.009-1.101,15.836,7.868-2.191Zm19.148,29.536c-2.811.719-7.599,1.79-7.599,1.79l-0.038-.129c1.119-1.028,2.33-3.46.585-6.805l-2.611-5.27-11.022,2.983-0.431,6.197c-0.016,3.72,1.92,5.321,3.405,5.643l0.029,0.135s-3.531,1.092-6.282,1.877c-2.696.866-6.103,1.882-6.103,1.882l-0.045-.132c1.066-.911,2.232-4.01,2.455-7.619,0.617-9.627,1.524-24.01,2.333-30.453,0.393-3.095.013-6.028-2.378-6.847l-0.034-.158s3.354-.982,7.435-1.952c3.421-.816,7.506-1.873,7.506-1.873l0.053,0.157c-1.583,2.106-.369,4.323,1.131,7.099,1.418,2.641,13.494,24.759,14.51,26.589,1.777,3.062,2.915,4.295,4.739,5.112l0.017,0.134s-4.812,1.028-7.655,1.64m-52.008-23.98a4.97341,4.97341,0,0,0-4.105-3.754l-0.04-.129s3.795-1.402,6.544-2.341c2.851-.969,6.926-2.315,6.926-2.315l0.062,0.132c-1.046.944-1.511,2.946-.916,5.288,0,0,5.225,20.505,5.973,23.217,0.744,2.709,1.775,4.227,3.186,4.416l0.047,0.13c-0.728.711-1.31494,2.484-2.058,4.113-0.755,1.648-2.328,6.662-8.429,9.039-6.64795,2.59-13.43195,1.027-16.31995-3.672-1.887-3.06-1.467-7.266,1.557-8.989a4.57875,4.57875,0,0,1,6.055,6.739c-0.174.158-.002,0.453,0.402,0.719a5.30235,5.30235,0,0,0,5.748.09c2.488-1.334,3.329-3.472,2.036-8.428-1.043-3.976-5.941-21.547-6.668-24.255" transform="translate(-14.68535 -11.05733)"/><path class="cls-2" d="M183.73186,112.65213a36.38,36.38,0,1,1-36.387-36.39,36.38974,36.38974,0,0,1,36.387,36.39" transform="translate(-14.68535 -11.05733)"/><path class="cls-3" d="M178.44548,113.98753a1.245,1.245,0,1,1,1.243-1.247,1.24791,1.24791,0,0,1-1.243,1.247m-0.313,9.145-0.315.976-3.633-1.175,0.315-.973c0.509-1.611,1.186-2.124,2.528-1.691,1.277,0.407,1.627,1.225,1.105,2.863m-0.82-3.833c-1.97-.635-3.101.372-3.601,1.933l-0.757,2.362,5.483,1.774,0.77-2.412a2.66555,2.66555,0,0,0-1.895-3.657m-2.675,12.871-4.874-3.027,2.44495-3.958,0.818,0.513-1.91394,3.081,1.136,0.714,1.644-2.659,0.822,0.511-1.647,2.655,1.284,0.802,1.958-3.158,0.823,0.503Zm-3.443,4.011-3.352-3.388,1.634-1.628-0.677-.679-4,3.959,0.676,0.676,1.643-1.621,3.362,3.394Zm-5.551,4.566-3.229-4.742,0.832-.562,3.234,4.745Zm-2.855,1.831-2.21-5.3-1.22095.508,0.119,4.558-3.124-3.316-1.249.522,2.205,5.297,0.826-.334-1.675-4.023,0.015-.01,3.211,3.392,0.741-.316-0.155-4.65,0.014-.006,1.669,4.019Zm-9.802,3.194-1.077-5.651,0.994-.184,1.075,5.647Zm-2.819.459-0.01605-.99-3.743.043-0.059-4.752-1.001.008,0.053,5.746Zm-12.61505-1.262-0.862-.34-1.804-5.305-1.559,4.011-0.902-.351,2.075-5.357,0.997,0.378,1.729,5.126,1.494-3.868,0.904,0.346Zm-7.061-6.437a2.06216,2.06216,0,1,1-.434-2.855,1.88249,1.88249,0,0,1,.434,2.855m0.141-3.629a3.0114,3.0114,0,1,0,.631,4.291,2.802,2.802,0,0,0-.631-4.291m-5.931-4.487c-0.437-.52-1.009-0.946-1.422-0.616-0.193.159-.308,0.417,0.217,1.306l0.602,1.086c0.576,1.026.609,1.873-.137,2.473-1.064.858-2.179,0.257-3.045-.81-1.385-1.741-.774-2.926-0.51-3.289l0.876,0.55a1.77481,1.77481,0,0,0,.407,2.153c0.514,0.644,1.172.988,1.56,0.676,0.288-.23.239-0.684-0.143-1.327l-0.624-1.076c-0.611-1.055-.572-1.932.114-2.485,1.341-1.078,2.596.496,2.85,0.809,1.386,1.728.731,2.752,0.503,3.094l-0.863-.522c0.28894-.448.37994-1.056-0.385-2.022m-4.867-10.147a0.63077,0.63077,0,0,1-.457.838,0.89523,0.89523,0,0,1-.973-0.437l-0.096-.147,0.096-.162a1.24575,1.24575,0,0,1,.58-0.521,0.62116,0.62116,0,0,1,.85.429m-2.727-.056,0.128,0.167-0.171.259a10.5604,10.5604,0,0,0-.757,1.265l-0.14795.275-0.162-.187a2.91636,2.91636,0,0,1-.597-1.056,1.02993,1.02993,0,0,1,.513-1.389,1.20282,1.20282,0,0,1,1.194.666m2.468,1.739a1.3915,1.3915,0,0,0,.87-1.898,1.35789,1.35789,0,0,0-1.698-1.053,1.65456,1.65456,0,0,0-.78.507l-0.147.175-0.129-.195a1.91843,1.91843,0,0,0-2.079-.874c-1.108.323-1.472,1.338-1.116,2.57a3.46309,3.46309,0,0,0,1.023,1.677l0.226,0.188a3.098,3.098,0,0,0-.13306,1.966l0.05,0.166,0.923-.259-0.052-.182a1.79767,1.79767,0,0,1,.013-1.109l0.207,0.115a6.4802,6.4802,0,0,0,1.469.505l0.112,0.022,0.222-.887-0.116-.024a4.751,4.751,0,0,1-1.459-.559l-0.072-.044,0.095-.199c0.2-.398.463-0.83,0.719-1.235l0.049-.073,0.06,0.065a1.5781,1.5781,0,0,0,1.743.635m-1.986-9.264a1.244,1.244,0,1,1-1.245-1.242,1.24472,1.24472,0,0,1,1.245,1.242m-3.518-7.622,3.432,0.724c0.831,0.167,1.252.49,0.996,1.648a3.91757,3.91757,0,0,1-.414,1.091l1.029,0.223a5.91082,5.91082,0,0,0,.383-1.227c0.316-1.481-.072-2.341-1.725-2.706l-3.496-.739Zm6.368-13.357,1.719,1.488,2.275-2.618-1.713-1.494,0.668-.768,4.321,3.776-0.669.757-1.862-1.621-2.28,2.618,1.861,1.623-0.661.76-4.327-3.764Zm5.772-5.878,3.171,4.783,0.801-.53-2.369-3.582,5.371,1.605,0.77295-.513-3.174-4.789-0.802.537,2.28,3.461-5.157-1.557Zm13.91095-1.466c1.165-.241,1.292-0.76,1.104-1.577l-0.741-3.42,0.984-.22,0.74695,3.481c0.347,1.657-.277,2.364-1.764,2.684a5.20315,5.20315,0,0,1-1.272.147l-0.226-1.027a3.8764,3.8764,0,0,0,1.168-.068m8.185-2.197h-2.167l1.084-2.562Zm-4.204,2.278h1.075l0.546-1.318h2.982l0.53595,1.318h1.069l-2.506-5.742h-1.152Zm9.389-5.298,1.303,0.367,0.42,4.533,2.717-3.664,1.285,0.364-1.537,5.53-0.86505-.241,1.16705-4.192-0.015-.011-2.759,3.753-0.774-.21-0.436-4.643-0.018-.003-1.168,4.195-0.86-.238Zm6.171,8.092,4.065,2.409,0.499-.828-3.201-1.894,0.768-1.305,2.689,1.59,0.495-.831-2.694-1.59,0.686-1.147,3.119,1.85,0.498-.828-4.003-2.361Zm7.934,4.756c0.59,0.574,1.293.841,1.642,0.484,0.26-.268.154-0.714-0.308-1.3l-0.754-1.005c-0.731-.957-0.803-1.846-0.188-2.475,1.202-1.227,2.648.185,2.934,0.455,1.598,1.56,1.073,2.646.886,3.022l-0.927-.417c0.235-.486.25-1.101-0.636-1.962-0.489-.475-1.112-0.816-1.49-0.439-0.166.173-.258,0.452,0.383,1.269l0.73,1.009c0.698,0.952.839,1.779,0.167,2.473-0.942.972-2.138,0.529-3.134-.447-1.595-1.548-1.127-2.804-.909-3.19l0.934,0.436a1.79405,1.79405,0,0,0,.67,2.087m-43.322,31.173a25.32571,25.32571,0,0,0,47.283-17.758l-0.824.311a24.54363,24.54363,0,0,1-45.628,17.128Zm-1.011-9.193a2.00243,2.00243,0,0,1,2.594,1.524,2.25838,2.25838,0,0,1-.772,2.255c-0.097.046-.054,0.206,0.089,0.376a2.19292,2.19292,0,0,0,2.42.713c1.195-.31,1.784-1.174,1.784-3.583-0.003-1.931-.145-10.149-0.156-11.462a2.5697,2.5697,0,0,0-1.32-2.299v-0.067l6.176,0.015,0.007,0.065a2.37582,2.37582,0,0,0-.962,2.213s-0.023,9.246,0,10.564c0.013,1.321.287,2.134,0.857,2.386l0.007,0.061a7.44458,7.44458,0,0,0-1.319,1.627,6.42885,6.42885,0,0,1-4.559,3.107c-3.089.399-5.789-1.116-6.499-3.597-0.455-1.61.189-3.465,1.653-3.898m23.22-10.25a2.38931,2.38931,0,0,1,.972-2.213l-0.006-.065-6.171-.015v0.067a2.571,2.571,0,0,1,1.319,2.299c0.019,1.313.158,9.531,0.158,11.462,0,2.409-.596,3.273-1.792,3.583a2.18635,2.18635,0,0,1-2.409-.713c-0.144-.17-0.178-0.33-0.087-0.376a2.24584,2.24584,0,0,0,.768-2.255,1.99337,1.99337,0,0,0-2.587-1.524c-1.474.433-2.107,2.288-1.651,3.898,0.712,2.481,3.401,3.996,6.494,3.597a6.41252,6.41252,0,0,0,4.544-3.107,7.78249,7.78249,0,0,1,1.318-1.627v-0.061c-0.575-.252-0.85-1.065-0.864-2.386-0.02-1.318-.006-10.564-0.006-10.564m21.385-4.312a24.79385,24.79385,0,0,0-45.052,12.393l-0.881.241a25.31366,25.31366,0,0,1,46.835-12.87Zm-11.941,15.068,0.144,6.894,0.059,0.005a1.96685,1.96685,0,0,1,1.955-.719c1.394,0.244,1.70294.93,4.14,0.851a6.67067,6.67067,0,0,0,5.428-3.506,5.56816,5.56816,0,0,0-1.243-7.089c-1.306-1.103-3.227-1.796-4.835-2.781a2.28268,2.28268,0,0,1-.927-3.003,2.48713,2.48713,0,0,1,2.729-1.281,6.00485,6.00485,0,0,1,4.17,3.308l0.056-.015,0.108-5.449-0.059-.013a3.17082,3.17082,0,0,1-2.046.099,11.65689,11.65689,0,0,0-3.082-.625,6.5283,6.5283,0,0,0-5.941,3.803,5.42571,5.42571,0,0,0,2.201,6.779c1.461,1,3.177,1.632,4.308,2.669a2.35244,2.35244,0,0,1,.439,3.201,2.87176,2.87176,0,0,1-3.743.751,8.93163,8.93163,0,0,1-3.804-3.889Zm-3.087-6.907a0.692,0.692,0,0,0-.756-0.719,0.68469,0.68469,0,0,0-.732.542,1.96888,1.96888,0,0,0,.625,1.175,1.78535,1.78535,0,0,0,.863-0.998m-0.863,5.23a0.9681,0.9681,0,0,0,.952-0.316l-1.6-2.162a1.65145,1.65145,0,0,0-.509,1.004,1.36829,1.36829,0,0,0,1.157,1.474m-2.121-5.011a2.0869,2.0869,0,0,1,2.256-1.738,2.22751,2.22751,0,0,1,1.206.397,1.50821,1.50821,0,0,1,.619,1.259,2.271,2.271,0,0,1-1.281,1.744l0.357,0.534c0.318,0.39.69,0.889,1.075,1.398a1.65631,1.65631,0,0,0,.154-1.845v-0.087h1.474a3.99355,3.99355,0,0,1-1.074,2.623,3.61805,3.61805,0,0,0,1.528,1.35v0.087l-0.558.028-0.65.042a1.55574,1.55574,0,0,1-1.427-.434,3.41665,3.41665,0,0,1-2.041.576,2.80939,2.80939,0,0,1-1.643-.511,1.801,1.801,0,0,1-.733-1.601,2.96844,2.96844,0,0,1,1.493-2.101,2.57623,2.57623,0,0,1-.755-1.721m22.267-10.038a1.89025,1.89025,0,0,1,.718-2.844,2.0659,2.0659,0,1,1-.718,2.844m0.142-3.678a3.07823,3.07823,0,1,0,4.196,1.068,2.79649,2.79649,0,0,0-4.196-1.068m7.283,8.017-3.102,4.425,4.01-1.084,0.258,0.942-5.56,1.486-0.233-.885,3.20795-4.606-4.16095,1.128-0.258-.938,5.559-1.499Zm-58.584-1.883a1.898,1.898,0,0,1-2.764.976,2.068,2.068,0,1,1,2.764-.976m-0.491-3.646a3.08246,3.08246,0,1,0,1.35895,4.053,2.81593,2.81593,0,0,0-1.35895-4.053" transform="translate(-14.68535 -11.05733)"/></svg>